<svg width="350" height="91" viewBox="0 0 350 91" fill="none" xmlns="http://www.w3.org/2000/svg">
<path d="M29.2259 0H0V71.5442H12.8596V43.1886H30.6887C37.3805 43.1886 42.9051 41.1603 47.2625 37.1087C51.6199 33.0572 53.7986 27.7626 53.7986 21.2251C53.7986 15.4936 51.7859 10.5267 47.7605 6.31395C43.7299 2.10638 37.5569 0 29.2259 0ZM37.173 29.1981C35.0825 31.1537 32.0478 32.1314 28.0743 32.1314H12.8596V10.6931H26.9227C31.9752 10.6931 35.4715 11.7437 37.4064 13.8397C39.3413 15.9357 40.3062 18.453 40.3062 21.3863C40.3062 24.6369 39.2635 27.2425 37.173 29.1981Z" fill="white"/>
<path d="M83.5953 17.5063C75.892 17.5063 69.7916 20.1276 65.2993 25.3702C60.8018 30.6127 58.5557 37.2335 58.5557 45.2378C58.5557 53.6581 60.7862 60.3361 65.2474 65.2614C69.7086 70.1867 75.5963 72.652 82.9157 72.652C89.0161 72.652 94.0842 71.0969 98.1304 67.9867C102.171 64.8765 104.89 60.929 106.285 56.139L95.516 54.6723C93.4566 60.4037 89.4882 63.2695 83.5953 63.2695C80.5658 63.2695 78.0344 62.4633 76.0165 60.8562C73.9934 59.2491 72.6447 57.3612 71.9651 55.1976C71.2856 53.034 70.9432 50.1475 70.9432 46.5484H107.172L107.224 45.1858C107.224 37.0775 105.165 30.4411 101.056 25.2662C96.9425 20.0964 91.1222 17.5063 83.5953 17.5063ZM70.9432 38.8406C71.3271 34.7163 72.6135 31.5281 74.813 29.2761C77.0073 27.0241 79.7462 25.8955 83.0195 25.8955C86.3291 25.8955 89.1095 27.1021 91.3557 29.5101C93.6018 31.9234 94.743 35.0335 94.7793 38.8406H70.9432Z" fill="white"/>
<path d="M132.134 60.513C130.93 59.3063 130.329 57.0439 130.329 53.7257V27.8874H140.942V18.609H130.329V3.93188L120.55 4.82125L119.451 18.609H112.183V27.8874H118.771V55.3016C118.771 59.9149 119.3 63.3319 120.364 65.5475C121.427 67.7683 123.108 69.5158 125.411 70.79C127.709 72.0643 130.464 72.704 133.669 72.704C135.62 72.704 138.374 72.3191 141.928 71.5494V62.2189C140.88 62.2865 139.889 62.3229 138.95 62.3229C135.615 62.3229 133.337 61.7196 132.134 60.513Z" fill="white"/>
<path d="M163.845 0H151.924V71.5442H163.845V0Z" fill="white"/>
<path d="M221.767 36.9529C221.767 32.4124 221.43 29.1878 220.745 27.2843C220.065 25.3808 218.836 23.6176 217.062 21.9897C215.282 20.367 213.104 19.2124 210.526 18.5311C207.947 17.8498 204.617 17.5117 200.54 17.5117C193.013 17.5117 187.26 18.9368 183.286 21.7817C179.313 24.6318 177.046 28.2569 176.491 32.6569L186.632 34.1756C187.608 28.6886 191.721 25.9477 198.968 25.9477C206.428 25.9477 210.157 28.6938 210.157 34.1756V38.1595C208.726 38.1231 207.595 38.1075 206.76 38.1075C185.465 38.1075 174.815 44.1874 174.815 56.3472C174.815 61.028 176.408 64.9183 179.598 68.0077C182.788 71.1022 187.011 72.6469 192.276 72.6469C201.022 72.6469 206.983 68.715 210.157 60.8512C210.365 64.7675 210.977 68.3302 211.988 71.5443H223.333C222.285 67.8777 221.767 64.3098 221.767 60.8512V36.9529ZM210.162 49.4819C210.162 53.1486 209.006 56.4252 206.687 59.3117C204.368 62.193 200.944 63.6337 196.416 63.6337C193.277 63.6337 190.933 62.8588 189.387 61.3037C187.836 59.7486 187.058 57.871 187.058 55.671C187.058 48.2961 194.761 44.6138 210.162 44.6138V49.4819Z" fill="white"/>
<path d="M274.804 21.9115C271.51 18.9782 267.546 17.5063 262.909 17.5063C256.041 17.5063 250.708 21.9636 246.911 30.8728V18.6089H236.038V71.5494H247.959V44.3432C247.959 38.8562 249.126 34.7527 251.46 32.0274C253.795 29.3021 256.513 27.9394 259.615 27.9394C261.882 27.9394 263.811 28.8236 265.42 30.5867C267.022 32.3498 267.827 34.9815 267.827 38.4766V71.5494H279.747V37.374C279.747 30.0042 278.098 24.8449 274.804 21.9115Z" fill="white"/>
<path d="M349.081 10.3604C348.978 10.3188 348.158 10.064 347.126 9.74669C345.144 9.13818 342.369 8.30083 342.369 8.30083C342.307 6.72495 340.859 5.3935 340.195 4.96702C339.531 4.54055 334.754 3.87482 334.209 3.87482C333.664 3.87482 332.093 4.11927 330.702 5.45071C329.312 6.78215 327.258 10.7817 327.258 10.7817L323.44 18.3022C320.53 17.777 317.656 17.5065 314.819 17.5065C308.059 17.5065 302.893 18.8379 299.313 21.4904C291.439 18.7963 285.619 11.6606 284.83 3.06348C284.768 3.7188 284.737 4.38451 284.737 5.06064C284.737 13.4186 289.478 20.6635 296.414 24.2469C294.188 26.9098 293.073 29.9732 293.073 33.4422C293.073 38.6483 295.511 42.7363 300.392 45.706C294.78 48.4313 291.978 52.098 291.978 56.7112C291.978 59.7486 293.618 62.6715 296.891 65.4644C291.766 67.9089 289.208 71.4923 289.208 76.2096C289.208 85.7481 297.731 90.5174 314.772 90.5174C323.834 90.5174 330.671 88.8739 335.293 85.5921C339.91 82.3051 342.219 78.1651 342.219 73.167C342.219 69.0427 340.693 65.5944 337.643 62.8171C334.593 60.0398 330.386 58.6512 325.017 58.6512H309.336C306.929 58.6512 305.134 58.1103 303.951 57.0285C302.768 55.9467 302.172 54.7557 302.172 53.4658C302.172 51.1254 303.391 49.3935 305.829 48.2753C309.559 49.1855 312.816 49.6379 315.607 49.6379C322.055 49.6379 327.237 48.0985 331.159 45.0247C335.081 41.9509 337.041 38.071 337.041 33.3902C337.041 30.28 335.885 27.3779 333.581 24.689C333.95 23.9037 334.619 22.541 335.662 20.7207C336.792 18.7391 337.524 17.9174 339.033 17.6677H342.167V17.6417C345.907 17.855 347.157 17.1996 347.753 16.4195C348.36 15.6342 348.599 13.9335 349.325 13.0857C350.835 11.3902 349.382 10.48 349.081 10.3604ZM310.591 69.9788H323.243C325.297 69.9788 327.128 70.4261 328.731 71.3155C330.334 72.2048 331.138 73.5259 331.138 75.2734C331.138 79.9907 326.553 82.3519 317.392 82.3519C311.151 82.3519 306.602 81.4365 303.749 79.6006C300.89 77.7647 299.464 75.6427 299.464 73.2346C299.464 71.768 300.32 70.2493 302.026 68.6734C305.326 69.542 308.184 69.9788 310.591 69.9788ZM315.083 42.5647C312.054 42.5647 309.683 41.7585 307.971 40.1514C306.265 38.5443 305.409 36.4483 305.409 33.8635C305.409 31.3462 306.27 29.2502 307.997 27.5755C309.725 25.9008 312.152 25.0583 315.291 25.0583C318.393 25.0583 320.753 25.8644 322.377 27.4715C323.995 29.0786 324.81 31.055 324.81 33.3954C324.81 39.5065 321.567 42.5647 315.083 42.5647Z" fill="white"/>
</svg>
